<svg width="36" height="40" viewBox="0 0 36 40" fill="none" xmlns="http://www.w3.org/2000/svg">
<path d="M8 40V27.55H4.45C3.25 27.55 2.20833 27.1417 1.325 26.325C0.441666 25.5083 0 24.5 0 23.3C0 22.4 0.225 21.5583 0.675 20.775C1.125 19.9917 1.76667 19.4167 2.6 19.05L16.65 13.05V10.95C15.4167 10.6167 14.4083 9.94167 13.625 8.925C12.8417 7.90833 12.45 6.76667 12.45 5.5C12.45 3.96667 13 2.66667 14.1 1.6C15.2 0.533333 16.5167 0 18.05 0C19.5833 0 20.9 0.533333 22 1.6C23.1 2.66667 23.65 3.96667 23.65 5.5H20.65C20.65 4.8 20.3917 4.20833 19.875 3.725C19.3583 3.24167 18.75 3 18.05 3C17.35 3 16.7417 3.24167 16.225 3.725C15.7083 4.20833 15.45 4.8 15.45 5.5C15.45 6.26667 15.7083 6.90833 16.225 7.425C16.7417 7.94167 17.3833 8.2 18.15 8.2C18.55 8.2 18.9 8.34167 19.2 8.625C19.5 8.90833 19.65 9.25 19.65 9.65V13.05L33.4 19.05C34.2333 19.4167 34.875 19.9917 35.325 20.775C35.775 21.5583 36 22.4 36 23.3C36 24.5 35.5583 25.5083 34.675 26.325C33.7917 27.1417 32.75 27.55 31.55 27.55H28V40H8ZM11 25H25H11ZM4.45 24.55H8V22H28V24.55H31.55C31.9167 24.55 32.25 24.425 32.55 24.175C32.85 23.925 33 23.6167 33 23.25C33 22.95 32.9167 22.6833 32.75 22.45C32.5833 22.2167 32.3667 22.0333 32.1 21.9L18.15 15.6L3.9 21.9C3.63333 22.0333 3.41667 22.2167 3.25 22.45C3.08333 22.6833 3 22.9333 3 23.2C3 23.5667 3.14167 23.8833 3.425 24.15C3.70833 24.4167 4.05 24.55 4.45 24.55ZM11 37H25V25H11V37Z" fill="black"/>
</svg>
