<svg width="22" height="18" viewBox="0 0 22 18" fill="none" xmlns="http://www.w3.org/2000/svg">
<path id="Vector" d="M5 10.975C5.31667 10.8417 5.64167 10.7373 5.975 10.662C6.30833 10.5873 6.65 10.5333 7 10.5V4.575L3.875 6.3L2.85 4.55L6.7 2.325C7.1 3.14167 7.68767 3.79167 8.463 4.275C9.23767 4.75833 10.0833 5 11 5C11.9167 5 12.7627 4.75833 13.538 4.275C14.3127 3.79167 14.9 3.14167 15.3 2.325L19.125 4.55L18.125 6.3L15 4.575V14.4C15.0667 14.3667 15.1417 14.325 15.225 14.275C15.3083 14.225 15.375 14.1833 15.425 14.15L17 12.775V7.975L18.875 9L21.85 3.825L15.275 0H14C13.7333 0.8 13.4167 1.5 13.05 2.1C12.6833 2.7 12 3 11 3C10 3 9.31667 2.7 8.95 2.1C8.58333 1.5 8.26667 0.8 8 0H6.725L0.125 3.8L3.125 9L5 7.975V10.975ZM3.65 16.375L2.35 14.85L4.525 13C4.90833 12.6667 5.346 12.4127 5.838 12.238C6.32933 12.0627 6.84167 11.975 7.375 11.975C7.90833 11.975 8.41667 12.0627 8.9 12.238C9.38333 12.4127 9.81667 12.6667 10.2 13L13.1 15.475C13.3 15.6417 13.5373 15.771 13.812 15.863C14.0873 15.9543 14.3667 16 14.65 16C14.95 16 15.2293 15.9583 15.488 15.875C15.746 15.7917 15.975 15.6583 16.175 15.475L18.35 13.6L19.65 15.15L17.475 17C17.0917 17.3333 16.6583 17.5833 16.175 17.75C15.6917 17.9167 15.1833 18 14.65 18C14.1167 18 13.6043 17.9167 13.113 17.75C12.621 17.5833 12.1833 17.3333 11.8 17L8.9 14.525C8.7 14.3583 8.471 14.229 8.213 14.137C7.95433 14.0457 7.675 14 7.375 14C7.09167 14 6.81233 14.0457 6.537 14.137C6.26233 14.229 6.025 14.3583 5.825 14.525L3.65 16.375Z" fill="#CCCCCC"/>
</svg>
