<svg width="34" height="28" viewBox="0 0 34 28" fill="none" xmlns="http://www.w3.org/2000/svg">
<path d="M22.042 20.708H27.375C27.7637 20.708 28.09 20.576 28.354 20.312C28.618 20.0487 28.75 19.7087 28.75 19.292V8.708C28.75 8.29133 28.618 7.95133 28.354 7.688C28.09 7.424 27.7637 7.292 27.375 7.292H22.042C21.6527 7.292 21.326 7.424 21.062 7.688C20.7987 7.95133 20.667 8.29133 20.667 8.708V19.292C20.667 19.7087 20.7987 20.0487 21.062 20.312C21.326 20.576 21.6527 20.708 22.042 20.708ZM23.458 17.917V10.083H25.958V17.917H23.458ZM11.833 20.708H17C17.3887 20.708 17.715 20.576 17.979 20.312C18.243 20.0487 18.375 19.7087 18.375 19.292V8.708C18.375 8.29133 18.243 7.95133 17.979 7.688C17.715 7.424 17.3887 7.292 17 7.292H11.833C11.4443 7.292 11.118 7.424 10.854 7.688C10.59 7.95133 10.458 8.29133 10.458 8.708V19.292C10.458 19.7087 10.59 20.0487 10.854 20.312C11.118 20.576 11.4443 20.708 11.833 20.708ZM13.208 17.917V10.083H15.625V17.917H13.208ZM5.25001 20.708H8.04201V7.292H5.25001V20.708ZM0.333008 27.333V0.667H33.667V27.333H0.333008Z" fill="#AE3E3E"/>
</svg>
