<svg width="22" height="16" viewBox="0 0 22 16" fill="none" xmlns="http://www.w3.org/2000/svg">
<path d="M2.00001 16C1.51667 16 1.20001 15.7707 1.05001 15.312C0.900006 14.854 1.01667 14.4833 1.40001 14.2L10 7.75V6C10 5.71667 10.0917 5.479 10.275 5.287C10.4583 5.09567 10.6917 5 10.975 5C11.4083 5.01667 11.7707 4.879 12.062 4.587C12.354 4.29567 12.5 3.93333 12.5 3.5C12.5 3.08333 12.354 2.72933 12.062 2.438C11.7707 2.146 11.4167 2 11 2C10.5833 2 10.2293 2.146 9.93801 2.438C9.64601 2.72933 9.50001 3.08333 9.50001 3.5H7.50001C7.50001 2.53333 7.84167 1.70833 8.52501 1.025C9.20834 0.341667 10.0333 0 11 0C11.9667 0 12.7917 0.333333 13.475 1C14.1583 1.66667 14.5 2.48333 14.5 3.45C14.5 4.23333 14.2707 4.93733 13.812 5.562C13.354 6.18733 12.75 6.61667 12 6.85V7.75L20.6 14.2C20.9833 14.4833 21.1 14.854 20.95 15.312C20.8 15.7707 20.4833 16 20 16H2.00001ZM5.00001 14H17L11 9.5L5.00001 14Z" fill="white"/>
</svg>
