<svg width="28" height="36" viewBox="0 0 28 36" fill="none" xmlns="http://www.w3.org/2000/svg">
<path d="M10.083 19.833L11.542 15.042L7.62499 11.958H12.458L14 7.125L15.542 11.958H20.375L16.417 15.042L17.875 19.833L14 16.875L10.083 19.833ZM4.12499 35.333V22.583C2.93033 21.333 2.05533 19.9373 1.49999 18.396C0.944659 16.854 0.666992 15.2777 0.666992 13.667C0.666992 9.917 1.95166 6.75733 4.52099 4.188C7.09033 1.618 10.25 0.333 14 0.333C17.75 0.333 20.9097 1.618 23.479 4.188C26.0483 6.75733 27.333 9.917 27.333 13.667C27.333 15.2777 27.0553 16.854 26.5 18.396C25.9447 19.9373 25.0697 21.333 23.875 22.583V35.333L14 32.042L4.12499 35.333ZM14 24.208C16.9447 24.208 19.4377 23.1873 21.479 21.146C23.521 19.104 24.542 16.611 24.542 13.667C24.542 10.7223 23.521 8.22933 21.479 6.188C19.4377 4.146 16.9447 3.125 14 3.125C11.0553 3.125 8.56233 4.146 6.52099 6.188C4.47899 8.22933 3.45799 10.7223 3.45799 13.667C3.45799 16.611 4.47899 19.104 6.52099 21.146C8.56233 23.1873 11.0553 24.208 14 24.208Z" fill="#3E78AE"/>
</svg>
